# xmcd
#
# Track frame offsets: 
#        150
#        17564
#        35913
#        55363
#        76012
#        92283
#        108860
#        122360
#        142225
#        162973
#        186212
#
# Disc length: 2651 seconds
#
# Revision: 0
# Processed by: cddbd v1.5.2PL0 Copyright (c) Steve Scherf et al.
# Submitted via: ExactAudioCopy v1.0b4
#
DISCID=850a590b
DTITLE=Debbie Davies - Love Spin
DYEAR=2015
DGENRE=Contemporary Blues
TTITLE0=Life Of The Party
TTITLE1=Love Spin
TTITLE2=Let The Heartaches Begin
TTITLE3=Don't Change It Up
TTITLE4=It's All Blues
TTITLE5=Talk Real Slow
TTITLE6=I'm Not Cheatin' Yet
TTITLE7=Two Twenty-Five-Year-Olds
TTITLE8=A Darker Side Of Me
TTITLE9=I Get The Blues So Easy
TTITLE10=Way Back Home
EXTD=
EXTT0=
EXTT1=
EXTT2=
EXTT3=
EXTT4=
EXTT5=
EXTT6=
EXTT7=
EXTT8=
EXTT9=
EXTT10=
PLAYORDER=
